<svg width="326" height="323" viewBox="0 0 326 323" fill="none" xmlns="http://www.w3.org/2000/svg">
<g clip-path="url(#clip0_10_540)">
<path d="M323.207 161.499C323.228 179.879 320.103 198.127 313.968 215.454C313.964 215.466 313.96 215.473 313.956 215.485C313.929 215.565 313.902 215.638 313.872 215.719V215.723C312.563 219.398 311.125 223.011 309.557 226.563C305.603 235.521 300.841 244.101 295.331 252.196C293.996 254.168 292.612 256.108 291.182 258.016C289.608 260.125 287.984 262.193 286.311 264.219C284.768 266.087 283.184 267.919 281.559 269.716C279.628 271.856 277.639 273.942 275.593 275.972C270.778 280.765 265.665 285.249 260.285 289.399C259.341 290.131 258.386 290.851 257.422 291.558C255.176 293.216 252.886 294.814 250.551 296.354C245.414 299.747 240.086 302.841 234.594 305.622C233.646 306.105 232.69 306.581 231.73 307.041C228.018 308.832 224.231 310.481 220.368 311.986C219.266 312.419 218.161 312.837 217.044 313.24C216.856 313.313 216.668 313.382 216.476 313.447C203.23 318.225 189.413 321.24 175.38 322.416C174.405 322.504 173.429 322.578 172.451 322.638C171.415 322.711 170.377 322.77 169.338 322.815C168.516 322.857 167.699 322.888 166.874 322.911C166.705 322.918 166.532 322.926 166.363 322.926C165.254 322.961 164.14 322.982 163.023 322.991C162.551 322.995 162.079 322.999 161.603 322.999C161.38 322.999 161.158 322.999 160.935 322.995C157.715 322.984 154.518 322.879 151.346 322.681C151.281 322.677 151.216 322.669 151.151 322.669C150.014 322.592 148.882 322.512 147.754 322.412C143.735 322.075 139.759 321.589 135.827 320.954C134.921 320.812 134.018 320.659 133.117 320.494C129.206 319.804 125.345 318.971 121.536 317.997C120.404 317.709 119.278 317.409 118.158 317.095C111.696 315.298 105.354 313.097 99.1687 310.505C95.618 309.016 92.1339 307.408 88.7163 305.679C87.177 304.9 85.6531 304.097 84.1445 303.27C83.7338 303.047 83.3269 302.821 82.92 302.595C79.949 300.938 77.0393 299.191 74.1911 297.355C71.8572 295.855 69.5669 294.295 67.32 292.675C67.0437 292.483 66.7711 292.283 66.4986 292.084C64.7751 290.83 63.0797 289.543 61.4125 288.225C57.785 285.352 54.2868 282.333 50.9178 279.168C48.5878 276.981 46.3256 274.726 44.1312 272.401C31.3452 258.888 20.9867 243.272 13.5109 226.241C11.9217 222.616 10.4631 218.925 9.13493 215.166C9.13062 215.158 9.12801 215.149 9.12726 215.14C3.06613 197.905 -0.0205194 179.767 -0.000883464 161.5C-0.000883464 93.6927 41.8166 35.6449 101.084 11.7077C122.206 3.21319 144.882 -0.737514 167.634 0.113155C190.386 0.963823 212.704 6.59676 233.131 16.6448C286.503 43.0102 323.207 97.9738 323.207 161.499Z" fill="#F2F2F2"/>
<path d="M233.132 16.6448V220.729H101.085V11.7078C122.207 3.21325 144.883 -0.737453 167.635 0.113216C190.387 0.963884 212.704 6.59682 233.132 16.6448Z" fill="white"/>
<path d="M132.861 109.712C136.444 103.791 140.688 97.4696 147.336 95.5363C155.034 93.2975 162.942 97.745 169.65 102.134C189.71 115.259 209.029 129.484 227.517 144.742L227.497 144.972C213.103 143.98 198.709 142.988 184.315 141.996C173.916 141.279 163.159 140.464 153.969 135.547C150.482 133.682 147.082 131.189 143.13 131.016C138.221 130.8 133.94 134.227 130.576 137.807C110.675 158.985 104.916 191.37 82.5896 209.977C96.668 175.279 113.478 141.753 132.861 109.712Z" fill="#F2F2F2"/>
<path d="M242.791 21.8502C242.457 21.6277 242.119 21.4167 241.785 21.2019C232.131 15.0318 221.784 10.0194 210.957 6.268L208.447 40.8772H192.532V1.21586C191.53 1.00871 190.521 0.813069 189.511 0.628937V40.8772H170.598C160.187 40.8772 150.202 36.7439 142.839 29.3865C135.477 22.0292 131.341 12.0504 131.341 1.64555C130.328 1.8642 129.322 2.09817 128.317 2.34751V40.8772H112.912L110.521 7.87533C99.3946 12.1396 88.8318 17.7474 79.0676 24.5738C78.8987 24.6889 78.7298 24.8078 78.5647 24.9229C77.7164 25.5175 76.8796 26.1236 76.0466 26.7374V219.382H121.445L120.643 208.277L116.229 86.6917H205.126L200.712 208.277L199.91 219.382H244.806V23.1852C244.138 22.7325 243.466 22.2875 242.791 21.8502ZM128.317 76.622H115.5L113.131 43.9001H128.317V76.622ZM189.511 76.622H167.984V75.9737C167.984 75.662 167.923 75.3534 167.803 75.0655C167.684 74.7776 167.509 74.5161 167.288 74.2959C167.068 74.0757 166.806 73.9012 166.517 73.7823C166.229 73.6634 165.92 73.6024 165.608 73.603H156.25C155.938 73.6028 155.63 73.6641 155.342 73.7832C155.054 73.9023 154.792 74.0769 154.572 74.297C154.352 74.5172 154.177 74.7786 154.058 75.0663C153.939 75.354 153.877 75.6623 153.878 75.9737V76.622H131.341V43.9001H189.511V76.622ZM192.532 76.622V43.9001H208.228L205.86 76.622H192.532Z" fill="#3F3D56"/>
<path d="M313.969 215.453C313.965 215.465 313.961 215.473 313.957 215.484C313.931 215.565 313.904 215.637 313.873 215.718V215.722C312.564 219.397 311.126 223.01 309.558 226.563L13.5121 226.24C11.9229 222.615 10.4642 218.924 9.1361 215.166C9.13179 215.157 9.12917 215.148 9.12842 215.139L313.969 215.453Z" fill="#3F3D56"/>
<path d="M203.334 216.715H151.513V223.62H203.334V216.715Z" fill="white"/>
<path d="M82.917 284.335C83.1013 282.712 83.3559 281.1 83.6809 279.498C85.4572 270.81 89.2696 262.667 94.8051 255.737C97.9719 255.913 100.747 255.43 101.012 249.3C101.062 248.211 101.872 247.263 102.048 246.189C101.749 246.231 101.438 246.254 101.139 246.273C101.043 246.277 100.943 246.285 100.851 246.289H100.816C100.484 246.304 100.154 246.223 99.8667 246.056C99.5794 245.888 99.3467 245.641 99.1969 245.344C99.0472 245.047 98.9866 244.713 99.0226 244.382C99.0586 244.052 99.1896 243.738 99.3998 243.481C99.5304 243.323 99.6609 243.162 99.7914 243.001C99.9871 242.752 100.191 242.51 100.39 242.265C100.413 242.238 100.432 242.215 100.455 242.188C100.682 241.908 100.908 241.628 101.139 241.348C100.723 240.702 100.163 240.161 99.5035 239.767C97.2195 238.429 94.0681 239.357 92.4175 241.421C90.7631 243.485 90.4483 246.385 91.0241 248.962C91.5154 251.172 92.5864 253.198 93.7879 255.123C93.665 255.281 93.5345 255.434 93.4117 255.595C91.1478 258.505 89.1743 261.63 87.5195 264.924C87.9878 261.269 82.2644 248.073 80.0496 245.276C77.3895 241.919 71.9387 243.385 71.4704 247.643C71.4665 247.681 71.4589 247.723 71.455 247.766C71.7851 247.95 72.1076 248.145 72.4223 248.356C72.8177 248.62 73.1241 248.998 73.3013 249.439C73.4785 249.88 73.5182 250.364 73.4153 250.828C73.3124 251.292 73.0717 251.714 72.7246 252.039C72.3776 252.364 71.9404 252.577 71.4704 252.649L71.4205 252.657C67.0215 258.936 81.1282 275.282 84.6636 271.615C83.7747 274.111 83.0653 276.667 82.5408 279.264C82.0701 281.554 81.7419 283.872 81.5581 286.203C81.3342 289.139 81.3483 292.089 81.6004 295.022C81.5934 294.988 81.5883 294.954 81.585 294.919C80.7981 288.528 67.3362 279.026 63.4055 279.816C61.1408 280.273 58.9105 280.169 59.256 282.452C59.2599 282.49 59.2675 282.524 59.2714 282.563C59.8818 282.809 60.4755 283.095 61.0486 283.418C61.3788 283.602 61.7012 283.802 62.016 284.009C62.3862 284.256 62.6789 284.603 62.8604 285.01C63.0419 285.416 63.1047 285.866 63.0418 286.306C62.9788 286.747 62.7925 287.161 62.5044 287.5C62.2163 287.84 61.8381 288.091 61.4133 288.225C63.0831 289.541 64.7785 290.827 66.4994 292.084C66.772 292.283 67.0445 292.483 67.3209 292.675C69.5665 294.294 71.8568 295.854 74.1919 297.355C77.0402 299.188 79.9498 300.935 82.9208 302.595C83.3277 302.821 83.7346 303.048 84.1454 303.27C83.1127 299.024 82.5895 294.67 82.5869 290.3C82.5859 288.307 82.6961 286.316 82.917 284.335ZM85.0167 270.629L85.0244 270.617C85.0242 270.624 85.0215 270.631 85.0167 270.636V270.629ZM81.9574 298.214L81.8384 297.949C81.8422 297.754 81.8422 297.562 81.8384 297.362C81.8384 297.309 81.8269 297.255 81.8269 297.201C81.8729 297.543 81.9113 297.884 81.9612 298.226L81.9574 298.214ZM99.5879 298.736C99.6302 298.559 99.6647 298.437 99.7069 298.26C99.6916 298.222 99.6762 298.183 99.6609 298.149C98.3826 295.107 91.6344 301.241 88.7171 305.679C92.1334 307.405 95.6176 309.014 99.1695 310.505C99.4075 310.206 99.6532 309.91 99.895 309.611C99.9181 309.584 99.9372 309.561 99.9564 309.534C100.478 308.89 101.004 308.253 101.523 307.609C101.526 307.482 101.526 307.356 101.526 307.233C101.521 305.385 101.294 303.545 100.851 301.751C100.494 301.767 100.141 301.674 99.8396 301.483C99.538 301.292 99.3023 301.014 99.1645 300.685C99.0267 300.356 98.9934 299.992 99.0691 299.644C99.1449 299.295 99.326 298.978 99.5879 298.736Z" fill="white"/>
<path d="M182.623 218.897C183.545 219.533 184.595 219.958 185.699 220.144C186.803 220.33 187.934 220.272 189.013 219.974C190.092 219.675 191.093 219.144 191.945 218.418C192.796 217.691 193.478 216.787 193.942 215.768L221.04 218.301L214.387 205.829L189.674 205.335C187.911 204.67 185.964 204.674 184.203 205.347C182.443 206.02 180.99 207.315 180.121 208.986C179.252 210.658 179.026 212.59 179.488 214.417C179.949 216.244 181.064 217.838 182.623 218.897Z" fill="#FFB6B6"/>
<path d="M210.101 218.044L247.6 222.245L247.729 222.08C247.976 221.764 272.513 190.376 276.636 182.904C279.172 178.415 280.096 173.194 279.253 168.108L279.225 167.983L279.128 167.901C277.129 166.227 274.618 165.283 272.011 165.226C269.403 165.169 266.854 166.002 264.783 167.587C254.827 175.292 246.8 185.205 241.334 196.543L238.233 202.995L210.101 205.768V218.044Z" fill="#6C63FF"/>
<path d="M179.677 305.83L172.453 322.639C171.416 322.712 170.379 322.771 169.34 322.816C168.518 322.858 167.701 322.889 166.875 322.912L166.595 323L166.365 322.927C165.255 322.962 164.142 322.983 163.025 322.992C162.553 322.996 162.081 323 161.605 323C161.382 323 161.16 323 160.937 322.996L161.417 321.354L161.981 319.409L164.223 311.707L167.459 300.586L172.272 302.65L179.677 305.83Z" fill="#FFB6B6"/>
<path d="M231.732 307.042C228.02 308.833 224.233 310.482 220.37 311.987L216.593 305.638L228.768 300.294L231.732 307.042Z" fill="#FFB6B6"/>
<path d="M257.424 278.187V291.559C255.178 293.217 252.888 294.815 250.552 296.355V278.187H257.424Z" fill="#CACACA"/>
<path d="M281.56 269.717C279.63 271.857 277.641 273.943 275.595 275.973C270.78 280.766 265.667 285.25 260.287 289.4H229.655C228.842 289.4 228.038 289.226 227.297 288.891C226.557 288.555 225.896 288.066 225.36 287.455L225.356 287.443C224.717 286.723 224.273 285.851 224.066 284.911L224.062 284.904C223.976 284.5 223.932 284.089 223.932 283.676V275.44C223.933 273.923 224.536 272.469 225.609 271.396C226.682 270.322 228.137 269.719 229.655 269.717H281.56Z" fill="#3F3D56"/>
<path d="M294.182 237.57L290.861 251.787C291.186 253.846 291.294 255.934 291.184 258.017C289.61 260.126 287.986 262.194 286.312 264.22C284.769 266.088 283.185 267.92 281.56 269.717C279.63 271.857 277.641 273.943 275.595 275.973C270.267 277.646 263.987 278.329 257.423 278.375C255.159 278.394 252.859 278.333 250.552 278.21C241.198 277.719 231.736 276.219 223.986 274.661C221.936 274.255 220.009 273.84 218.235 273.438C214.877 272.682 212.067 271.976 210.032 271.439C207.741 270.841 206.436 270.453 206.436 270.453L197.718 285.042L189.803 298.284L179.604 311.292C178.629 311.38 177.653 311.455 176.675 311.515C175.639 311.588 174.601 311.646 173.562 311.691C172.741 311.733 171.923 311.764 171.098 311.787L170.817 311.875L170.587 311.802L166.887 310.625L165.639 310.23L161.152 308.803C161.152 308.803 162.154 305.649 163.908 300.39C164.553 298.461 169.121 284.194 173.9 271.738C175.316 268.04 176.783 264.289 178.291 260.556C179.527 257.491 180.786 254.437 182.061 251.426C184.275 246.205 194.977 243.39 207.579 241.913C208.22 241.84 208.865 241.767 209.514 241.698C215.936 241.023 222.749 240.674 229.121 240.512C232.311 240.432 235.39 240.401 238.253 240.397C239.179 240.397 240.078 240.4 240.952 240.405H240.956C243.317 240.417 245.489 240.451 247.401 240.489C247.773 240.497 248.134 240.509 248.487 240.516H248.491C248.729 240.52 248.963 240.528 249.193 240.532C253.374 240.639 255.938 240.769 255.938 240.769L256.932 232.975L257.135 231.402L257.327 229.906V229.902L257.35 229.714L257.508 229.71L260.272 229.656L283.503 229.204L293.398 228.785L294.182 237.57Z" fill="#2F2E41"/>
<path d="M231.141 300.636C230.193 301.119 229.237 301.595 228.277 302.055C224.565 303.846 220.778 305.495 216.915 307C215.813 307.433 214.708 307.851 213.591 308.254C213.468 308.081 213.341 307.909 213.215 307.736C207.887 300.428 204.57 295.771 197.718 285.042C194.851 280.554 191.968 275.874 189.17 271.094L209.43 261.642L211.702 260.583L218.235 273.438L224.062 284.904L225.36 287.455L231.141 300.636Z" fill="#2F2E41"/>
<path d="M264.004 145.792C274.312 145.792 282.669 137.441 282.669 127.139C282.669 116.837 274.312 108.486 264.004 108.486C253.695 108.486 245.338 116.837 245.338 127.139C245.338 137.441 253.695 145.792 264.004 145.792Z" fill="#FFB6B6"/>
<path d="M297.322 185.119C297.168 169.714 297.621 174.175 296.4 168.87C293.122 154.607 279.514 152.006 277.142 151.684C276.89 151.012 276.501 150.399 276.001 149.883C275.501 149.367 274.9 148.959 274.236 148.686C273.572 148.412 272.858 148.278 272.14 148.291C271.421 148.305 270.714 148.466 270.06 148.765L265.519 151.118C261.116 153.132 263.788 156.042 262.268 160.634L260.671 165.505L247.585 201.653L250.234 215.405L250.238 215.413L252.023 224.677L257.315 230.703L257.216 229.741L257.097 229.925L257.093 229.929L256.786 230.385C257.212 230.619 257.635 230.849 258.049 231.08C259.124 231.67 260.172 232.25 261.193 232.817C261.439 232.955 261.68 233.09 261.922 233.228H261.926C262.08 233.312 262.233 233.397 262.383 233.481C266.214 235.621 252.034 239.519 255.186 241.349C255.623 241.602 256.057 241.855 256.483 242.104C270.993 250.586 282.57 261.151 286.313 264.22C287.986 262.194 289.61 260.126 291.184 258.017C292.612 256.11 293.995 254.17 295.333 252.197C295.567 250.655 295.725 249.113 295.878 247.602C296.063 245.783 295.103 228.939 295.425 227.086C295.567 226.265 295.022 225.487 294.496 224.735C294.009 224.033 293.548 223.373 293.644 222.751C293.744 222.111 294.45 221.413 295.138 220.734C295.886 219.989 296.661 219.222 296.773 218.413C297.08 216.157 295.817 213.894 296.055 211.623C296.446 207.929 296.747 204.223 296.957 200.506C297.253 195.373 297.374 190.244 297.322 185.119Z" fill="#6C63FF"/>
<path d="M192.043 222.901C192.814 222.089 193.753 221.456 194.795 221.047C195.837 220.637 196.956 220.46 198.073 220.53C199.191 220.599 200.28 220.912 201.263 221.448C202.246 221.983 203.1 222.727 203.764 223.628L229.756 215.56L225.822 229.136L201.743 234.716C200.155 235.731 198.25 236.129 196.388 235.834C194.526 235.538 192.837 234.571 191.642 233.114C190.446 231.658 189.827 229.814 189.9 227.932C189.974 226.049 190.737 224.259 192.043 222.901Z" fill="#FFB6B6"/>
<path d="M223.554 230.412L271.798 220.472L259.278 223.571C259.419 223.196 273.491 185.93 275.201 177.571C276.285 172.53 275.611 167.271 273.291 162.667L273.227 162.556L273.11 162.507C270.702 161.503 268.025 161.349 265.519 162.071C263.012 162.792 260.827 164.345 259.322 166.475C252.114 176.794 247.404 188.645 245.564 201.095L244.526 208.178L227.517 213.263L223.554 230.412Z" fill="#6C63FF"/>
<path d="M133.645 215.232C133.814 215.724 134.135 216.15 134.561 216.448C134.988 216.747 135.498 216.902 136.018 216.893L146.187 216.632C146.712 216.621 147.219 216.442 147.632 216.12C148.046 215.798 148.345 215.351 148.483 214.845L149.922 199.467C150.433 199.698 150.988 199.813 151.549 199.801C152.532 199.777 153.465 199.363 154.143 198.65C154.821 197.938 155.188 196.986 155.163 196.003C155.139 195.021 154.724 194.088 154.012 193.411C153.299 192.733 152.346 192.367 151.363 192.391C151.139 192.391 150.915 192.414 150.696 192.461C150.458 192.203 150.169 191.998 149.846 191.859C149.524 191.72 149.176 191.65 148.825 191.654L133.183 192.058C133.053 192.062 132.924 192.078 132.797 192.105C132.454 192.169 132.129 192.306 131.843 192.506C131.557 192.706 131.318 192.965 131.14 193.265C130.963 193.566 130.852 193.901 130.815 194.247C130.779 194.594 130.816 194.945 130.927 195.276L133.645 215.232ZM150.217 198.423L151.241 194.759C151.358 194.335 151.36 193.889 151.249 193.464C151.299 193.464 151.343 193.44 151.392 193.44C152.094 193.426 152.774 193.69 153.281 194.175C153.788 194.661 154.083 195.327 154.099 196.029C154.115 196.73 153.853 197.41 153.369 197.918C152.885 198.427 152.218 198.722 151.516 198.741C151.063 198.755 150.613 198.645 150.217 198.423Z" fill="#2F2E41"/>
<path d="M132.797 192.105C133.13 194.01 136.877 195.348 141.382 195.116C145.525 194.925 148.913 193.471 149.533 191.748C149.304 191.68 149.065 191.648 148.825 191.654L133.183 192.058C133.053 192.062 132.924 192.078 132.797 192.105Z" fill="#3F3D56"/>
<path d="M64.7732 178.184V211.061C64.7735 211.48 64.9402 211.882 65.2367 212.178C65.5331 212.474 65.9351 212.641 66.3543 212.641H115.106C115.525 212.641 115.927 212.474 116.224 212.178C116.52 211.882 116.687 211.48 116.687 211.061V178.184C116.686 177.766 116.519 177.365 116.223 177.069C115.926 176.773 115.525 176.606 115.106 176.606H66.3543C65.9354 176.606 65.5339 176.773 65.2375 177.069C64.9412 177.365 64.7742 177.766 64.7732 178.184Z" fill="#3F3D56"/>
<path d="M65.917 178.593V210.656C65.9174 210.879 66.0065 211.094 66.1649 211.252C66.3233 211.411 66.538 211.5 66.762 211.5H114.7C114.924 211.5 115.139 211.411 115.297 211.252C115.456 211.094 115.545 210.879 115.545 210.656V178.593C115.545 178.369 115.456 178.154 115.298 177.996C115.139 177.837 114.925 177.748 114.7 177.747H66.762C66.5378 177.748 66.3228 177.837 66.1644 177.996C66.006 178.154 65.917 178.369 65.917 178.593Z" fill="#6C63FF"/>
<path d="M63.7536 217.473C63.8429 217.585 63.9564 217.675 64.0856 217.737C64.2148 217.799 64.3564 217.83 64.4996 217.83H116.701C116.844 217.83 116.985 217.798 117.114 217.736C117.242 217.675 117.356 217.585 117.446 217.474C117.536 217.364 117.6 217.234 117.634 217.096C117.667 216.957 117.669 216.813 117.64 216.673L116.83 212.826C116.796 212.669 116.724 212.523 116.619 212.402C116.515 212.28 116.382 212.186 116.232 212.129C116.123 212.086 116.007 212.065 115.891 212.065H65.3067C65.1901 212.065 65.0744 212.086 64.9658 212.129C64.8159 212.186 64.6826 212.28 64.5781 212.402C64.4736 212.523 64.4013 212.669 64.3677 212.826L63.5574 216.673C63.5286 216.812 63.5312 216.957 63.5652 217.095C63.5991 217.233 63.6635 217.363 63.7536 217.473Z" fill="#2F2E41"/>
<path d="M114.1 213.722H115.333C115.436 213.722 115.52 213.638 115.52 213.534V212.945C115.52 212.841 115.436 212.757 115.333 212.757H114.1C113.996 212.757 113.912 212.841 113.912 212.945V213.534C113.912 213.638 113.996 213.722 114.1 213.722Z" fill="#3F3D56"/>
<path d="M110.884 213.722H112.117C112.221 213.722 112.304 213.638 112.304 213.534V212.945C112.304 212.841 112.221 212.757 112.117 212.757H110.884C110.781 212.757 110.697 212.841 110.697 212.945V213.534C110.697 213.638 110.781 213.722 110.884 213.722Z" fill="#3F3D56"/>
<path d="M107.668 213.722H108.901C109.005 213.722 109.089 213.638 109.089 213.534V212.945C109.089 212.841 109.005 212.757 108.901 212.757H107.668C107.565 212.757 107.481 212.841 107.481 212.945V213.534C107.481 213.638 107.565 213.722 107.668 213.722Z" fill="#3F3D56"/>
<path d="M104.453 213.722H105.686C105.789 213.722 105.873 213.638 105.873 213.534V212.945C105.873 212.841 105.789 212.757 105.686 212.757H104.453C104.349 212.757 104.265 212.841 104.265 212.945V213.534C104.265 213.638 104.349 213.722 104.453 213.722Z" fill="#3F3D56"/>
<path d="M101.237 213.722H102.47C102.574 213.722 102.658 213.638 102.658 213.534V212.945C102.658 212.841 102.574 212.757 102.47 212.757H101.237C101.134 212.757 101.05 212.841 101.05 212.945V213.534C101.05 213.638 101.134 213.722 101.237 213.722Z" fill="#3F3D56"/>
<path d="M98.0217 213.722H99.2547C99.3582 213.722 99.4421 213.638 99.4421 213.534V212.945C99.4421 212.841 99.3582 212.757 99.2547 212.757H98.0217C97.9183 212.757 97.8344 212.841 97.8344 212.945V213.534C97.8344 213.638 97.9183 213.722 98.0217 213.722Z" fill="#3F3D56"/>
<path d="M94.8062 213.722H96.0392C96.1427 213.722 96.2266 213.638 96.2266 213.534V212.945C96.2266 212.841 96.1427 212.757 96.0392 212.757H94.8062C94.7027 212.757 94.6188 212.841 94.6188 212.945V213.534C94.6188 213.638 94.7027 213.722 94.8062 213.722Z" fill="#3F3D56"/>
<path d="M91.5906 213.722H92.8236C92.9271 213.722 93.011 213.638 93.011 213.534V212.945C93.011 212.841 92.9271 212.757 92.8236 212.757H91.5906C91.4871 212.757 91.4032 212.841 91.4032 212.945V213.534C91.4032 213.638 91.4871 213.722 91.5906 213.722Z" fill="#3F3D56"/>
<path d="M88.375 213.722H89.608C89.7115 213.722 89.7954 213.638 89.7954 213.534V212.945C89.7954 212.841 89.7115 212.757 89.608 212.757H88.375C88.2715 212.757 88.1876 212.841 88.1876 212.945V213.534C88.1876 213.638 88.2715 213.722 88.375 213.722Z" fill="#3F3D56"/>
<path d="M85.1594 213.722H86.3924C86.4959 213.722 86.5798 213.638 86.5798 213.534V212.945C86.5798 212.841 86.4959 212.757 86.3924 212.757H85.1594C85.056 212.757 84.9721 212.841 84.9721 212.945V213.534C84.9721 213.638 85.056 213.722 85.1594 213.722Z" fill="#3F3D56"/>
<path d="M81.9439 213.722H83.1769C83.2804 213.722 83.3643 213.638 83.3643 213.534V212.945C83.3643 212.841 83.2804 212.757 83.1769 212.757H81.9439C81.8404 212.757 81.7565 212.841 81.7565 212.945V213.534C81.7565 213.638 81.8404 213.722 81.9439 213.722Z" fill="#3F3D56"/>
<path d="M78.7285 213.722H79.9615C80.065 213.722 80.1489 213.638 80.1489 213.534V212.945C80.1489 212.841 80.065 212.757 79.9615 212.757H78.7285C78.6251 212.757 78.5412 212.841 78.5412 212.945V213.534C78.5412 213.638 78.6251 213.722 78.7285 213.722Z" fill="#3F3D56"/>
<path d="M75.513 213.722H76.746C76.8494 213.722 76.9333 213.638 76.9333 213.534V212.945C76.9333 212.841 76.8494 212.757 76.746 212.757H75.513C75.4095 212.757 75.3256 212.841 75.3256 212.945V213.534C75.3256 213.638 75.4095 213.722 75.513 213.722Z" fill="#3F3D56"/>
<path d="M72.2974 213.722H73.5304C73.6339 213.722 73.7178 213.638 73.7178 213.534V212.945C73.7178 212.841 73.6339 212.757 73.5304 212.757H72.2974C72.1939 212.757 72.11 212.841 72.11 212.945V213.534C72.11 213.638 72.1939 213.722 72.2974 213.722Z" fill="#3F3D56"/>
<path d="M69.0818 213.722H70.3148C70.4183 213.722 70.5022 213.638 70.5022 213.534V212.945C70.5022 212.841 70.4183 212.757 70.3148 212.757H69.0818C68.9783 212.757 68.8944 212.841 68.8944 212.945V213.534C68.8944 213.638 68.9783 213.722 69.0818 213.722Z" fill="#3F3D56"/>
<path d="M65.8662 213.722H67.0992C67.2027 213.722 67.2866 213.638 67.2866 213.534V212.945C67.2866 212.841 67.2027 212.757 67.0992 212.757H65.8662C65.7627 212.757 65.6788 212.841 65.6788 212.945V213.534C65.6788 213.638 65.7627 213.722 65.8662 213.722Z" fill="#3F3D56"/>
<path d="M114.138 215.328H115.371C115.474 215.328 115.558 215.244 115.558 215.141V214.551C115.558 214.448 115.474 214.364 115.371 214.364H114.138C114.034 214.364 113.95 214.448 113.95 214.551V215.141C113.95 215.244 114.034 215.328 114.138 215.328Z" fill="#3F3D56"/>
<path d="M110.922 215.328H112.155C112.259 215.328 112.343 215.244 112.343 215.141V214.551C112.343 214.448 112.259 214.364 112.155 214.364H110.922C110.819 214.364 110.735 214.448 110.735 214.551V215.141C110.735 215.244 110.819 215.328 110.922 215.328Z" fill="#3F3D56"/>
<path d="M107.707 215.328H108.94C109.043 215.328 109.127 215.244 109.127 215.141V214.551C109.127 214.448 109.043 214.364 108.94 214.364H107.707C107.603 214.364 107.519 214.448 107.519 214.551V215.141C107.519 215.244 107.603 215.328 107.707 215.328Z" fill="#3F3D56"/>
<path d="M104.491 215.328H105.724C105.827 215.328 105.911 215.244 105.911 215.141V214.551C105.911 214.448 105.827 214.364 105.724 214.364H104.491C104.388 214.364 104.304 214.448 104.304 214.551V215.141C104.304 215.244 104.388 215.328 104.491 215.328Z" fill="#3F3D56"/>
<path d="M101.275 215.328H102.508C102.612 215.328 102.696 215.244 102.696 215.141V214.551C102.696 214.448 102.612 214.364 102.508 214.364H101.275C101.172 214.364 101.088 214.448 101.088 214.551V215.141C101.088 215.244 101.172 215.328 101.275 215.328Z" fill="#3F3D56"/>
<path d="M98.0598 215.328H99.2928C99.3963 215.328 99.4802 215.244 99.4802 215.141V214.551C99.4802 214.448 99.3963 214.364 99.2928 214.364H98.0598C97.9563 214.364 97.8724 214.448 97.8724 214.551V215.141C97.8724 215.244 97.9563 215.328 98.0598 215.328Z" fill="#3F3D56"/>
<path d="M94.8443 215.328H96.0773C96.1807 215.328 96.2646 215.244 96.2646 215.141V214.551C96.2646 214.448 96.1807 214.364 96.0773 214.364H94.8443C94.7408 214.364 94.6569 214.448 94.6569 214.551V215.141C94.6569 215.244 94.7408 215.328 94.8443 215.328Z" fill="#3F3D56"/>
<path d="M91.6287 215.328H92.8617C92.9652 215.328 93.0491 215.244 93.0491 215.141V214.551C93.0491 214.448 92.9652 214.364 92.8617 214.364H91.6287C91.5252 214.364 91.4413 214.448 91.4413 214.551V215.141C91.4413 215.244 91.5252 215.328 91.6287 215.328Z" fill="#3F3D56"/>
<path d="M88.4131 215.328H89.6461C89.7496 215.328 89.8335 215.244 89.8335 215.141V214.551C89.8335 214.448 89.7496 214.364 89.6461 214.364H88.4131C88.3096 214.364 88.2257 214.448 88.2257 214.551V215.141C88.2257 215.244 88.3096 215.328 88.4131 215.328Z" fill="#3F3D56"/>
<path d="M85.1975 215.328H86.4305C86.534 215.328 86.6179 215.244 86.6179 215.141V214.551C86.6179 214.448 86.534 214.364 86.4305 214.364H85.1975C85.094 214.364 85.0101 214.448 85.0101 214.551V215.141C85.0101 215.244 85.094 215.328 85.1975 215.328Z" fill="#3F3D56"/>
<path d="M81.982 215.328H83.2149C83.3184 215.328 83.4023 215.244 83.4023 215.141V214.551C83.4023 214.448 83.3184 214.364 83.2149 214.364H81.982C81.8785 214.364 81.7946 214.448 81.7946 214.551V215.141C81.7946 215.244 81.8785 215.328 81.982 215.328Z" fill="#3F3D56"/>
<path d="M78.7664 215.328H79.9994C80.1029 215.328 80.1868 215.244 80.1868 215.141V214.551C80.1868 214.448 80.1029 214.364 79.9994 214.364H78.7664C78.6629 214.364 78.579 214.448 78.579 214.551V215.141C78.579 215.244 78.6629 215.328 78.7664 215.328Z" fill="#3F3D56"/>
<path d="M75.5508 215.328H76.7838C76.8873 215.328 76.9712 215.244 76.9712 215.141V214.551C76.9712 214.448 76.8873 214.364 76.7838 214.364H75.5508C75.4473 214.364 75.3634 214.448 75.3634 214.551V215.141C75.3634 215.244 75.4473 215.328 75.5508 215.328Z" fill="#3F3D56"/>
<path d="M72.3352 215.328H73.5682C73.6717 215.328 73.7556 215.244 73.7556 215.141V214.551C73.7556 214.448 73.6717 214.364 73.5682 214.364H72.3352C72.2317 214.364 72.1478 214.448 72.1478 214.551V215.141C72.1478 215.244 72.2317 215.328 72.3352 215.328Z" fill="#3F3D56"/>
<path d="M69.1196 215.328H70.3526C70.4561 215.328 70.54 215.244 70.54 215.141V214.551C70.54 214.448 70.4561 214.364 70.3526 214.364H69.1196C69.0161 214.364 68.9322 214.448 68.9322 214.551V215.141C68.9322 215.244 69.0161 215.328 69.1196 215.328Z" fill="#3F3D56"/>
<path d="M65.9041 215.328H67.1371C67.2406 215.328 67.3245 215.244 67.3245 215.141V214.551C67.3245 214.448 67.2406 214.364 67.1371 214.364H65.9041C65.8006 214.364 65.7167 214.448 65.7167 214.551V215.141C65.7167 215.244 65.8006 215.328 65.9041 215.328Z" fill="#3F3D56"/>
<path d="M87.4484 217.256H99.9359C100.039 217.256 100.123 217.172 100.123 217.069V216.48C100.123 216.376 100.039 216.292 99.9359 216.292H87.4484C87.3449 216.292 87.261 216.376 87.261 216.48V217.069C87.261 217.172 87.3449 217.256 87.4484 217.256Z" fill="#3F3D56"/>
<path d="M181.549 215.685L203.368 196.622C204.405 195.716 202.427 198.416 203.334 199.453C204.241 200.49 207.69 199.47 206.652 200.377L184.834 219.44L179.308 220.7L181.549 215.685Z" fill="#3F3D56"/>
<path d="M181.549 215.685L182.078 215.223C182.784 215.577 183.414 216.065 183.932 216.66C184.546 217.36 184.991 218.191 185.235 219.089L184.833 219.44L180.43 220.444L179.308 220.7L179.776 219.65L181.549 215.685Z" fill="#CCCCCC"/>
<path d="M179.776 219.65C179.939 219.722 180.084 219.831 180.197 219.969C180.311 220.107 180.391 220.27 180.43 220.444L179.308 220.7L179.776 219.65Z" fill="#3F3D56"/>
<path d="M323.907 154.587C321.849 157.663 318.556 159.792 315.009 160.847C313.568 161.276 312.081 161.528 310.579 161.599C310.394 159.902 309.95 158.244 309.263 156.681C309.332 158.345 309.101 160.007 308.579 161.588C306.324 161.46 304.12 160.87 302.104 159.854C298.169 157.84 295.14 153.988 294.469 149.619C293.678 144.517 295.993 139.507 296.829 134.413C297.67 129.319 296.092 122.866 291.102 121.527C287.302 120.507 287.728 120.948 284.569 123.292C287.855 128.148 275.717 145.942 270.75 144.391C267.942 143.513 266.144 140.938 265.564 140.938C261.66 147.659 269.011 158.983 261.603 161.335L262.213 160.725C266.685 155.228 257.338 143.593 261.81 138.096C263.058 136.557 264.386 134.735 264.017 132.79C263.668 130.941 260.731 129.963 259.872 131.482C261.419 127.941 259.135 123.215 255.354 122.306C251.995 121.497 252.056 122.494 248.686 122.928C248.466 121.472 248.054 120.052 247.461 118.704C247.523 120.156 247.354 121.609 246.959 123.008C245.768 122.985 244.618 122.57 243.688 121.827C240.94 119.613 241.496 114.964 243.949 112.428C246.406 109.893 250.056 108.98 253.538 108.389C254.55 101.345 273.996 100.611 276.573 107.648C277.671 102.393 284.254 99.6655 289.371 101.296C294.488 102.926 298.039 107.702 299.908 112.735C301.777 117.764 302.299 123.177 303.451 128.417C304.602 133.657 306.549 138.993 310.556 142.565C314.564 146.132 321.093 147.314 325.315 143.999C326.647 147.452 325.96 151.507 323.907 154.587Z" fill="#2F2E41"/>
</g>
<defs>
<clipPath id="clip0_10_540">
<rect width="326" height="323" fill="white"/>
</clipPath>
</defs>
</svg>
